<svg width="26" height="23" viewBox="0 0 26 23" fill="none" xmlns="http://www.w3.org/2000/svg">
<g id="Frame" clip-path="url(#clip0_1_68)">
<g id="Group">
<path id="Vector" d="M0.833252 0.550283C1.01533 0.141555 1.3237 -0.00675741 1.76666 -0.000805063C3.11759 0.0185401 4.46901 0.00564331 5.82042 0.00663537C6.35198 0.00663537 6.58742 0.191654 6.70978 0.724885C6.87816 1.46198 7.03724 2.20156 7.20806 2.97686C7.30498 2.97686 7.40727 2.97686 7.51006 2.97686C13.3225 2.97686 19.1349 2.9838 24.9468 2.96594C25.542 2.96396 25.9845 3.38509 25.7848 4.0825C24.8279 7.42326 23.893 10.771 22.9498 14.1157C22.7848 14.701 22.5783 14.8563 21.9694 14.8563C17.6631 14.8563 13.3567 14.8563 9.05041 14.8563C8.60598 14.8563 8.32356 15.0244 8.21 15.3528C8.05092 15.8136 8.3495 16.2784 8.84582 16.3364C8.94224 16.3478 9.04111 16.3428 9.13852 16.3428C13.461 16.3433 17.784 16.3428 22.1064 16.3433C22.5773 16.3433 22.8979 16.6281 22.9121 17.0522C22.9263 17.4778 22.6174 17.8156 22.195 17.8245C21.8372 17.8319 21.4794 17.826 21.1143 17.8428C21.709 17.9897 22.1965 18.2987 22.5362 18.8116C22.8827 19.3349 22.9919 19.9167 22.8607 20.5358C22.637 21.5918 21.6596 22.3388 20.5906 22.2778C19.5289 22.2173 18.6674 21.3974 18.5338 20.3116C18.4237 19.4182 18.874 18.2198 20.3625 17.8379C17.132 17.8379 13.9456 17.8379 10.7587 17.8379C11.3421 17.9877 11.8291 18.2898 12.1693 18.7977C12.5134 19.3111 12.6269 19.88 12.5124 20.4946C12.32 21.5259 11.3773 22.2982 10.3255 22.2818C9.25109 22.2654 8.35341 21.4663 8.18748 20.3785C8.01079 19.2198 8.66667 18.2848 10.0127 17.827C9.64854 17.827 9.33186 17.8275 9.01468 17.827C7.88352 17.8255 7.02892 17.1821 6.75579 16.1266C6.50078 15.1415 6.96235 14.1464 7.92611 13.6008C7.95352 13.5854 7.97848 13.5656 8.01177 13.5428C7.13073 9.52592 6.25116 5.51355 5.36865 1.48976C4.59627 1.48976 3.84004 1.48976 3.08382 1.48976C2.6526 1.48976 2.21991 1.46893 1.78967 1.49571C1.34083 1.523 1.01876 1.36972 0.833252 0.946114C0.833252 0.81417 0.833252 0.682227 0.833252 0.550283ZM24.1343 4.46891C18.5906 4.46891 13.0733 4.46891 7.53356 4.46891C8.18553 7.44161 8.83407 10.4009 9.48261 13.3577C13.5427 13.3577 17.5847 13.3577 21.6277 13.3577C22.4633 10.3955 23.2949 7.44707 24.1343 4.46891ZM11.09 20.0755C11.1042 19.6861 10.7709 19.3294 10.3793 19.3151C9.99508 19.3007 9.64316 19.6385 9.62896 20.0353C9.61477 20.4247 9.94809 20.7813 10.3397 20.7957C10.7239 20.8101 11.0753 20.4728 11.09 20.0755ZM20.7521 19.3165C20.3703 19.2907 20.013 19.6186 19.9866 20.0189C19.9611 20.4058 20.2846 20.7679 20.6796 20.7947C21.0614 20.8205 21.4187 20.4926 21.4452 20.0923C21.4706 19.7049 21.1471 19.3433 20.7521 19.3165Z" fill="#2C2C2C"/>
</g>
</g>
<defs>
<clipPath id="clip0_1_68">
<rect width="25" height="22.2826" fill="white" transform="translate(0.833252)"/>
</clipPath>
</defs>
</svg>
