<svg width="46" height="46" viewBox="0 0 46 46" fill="none" xmlns="http://www.w3.org/2000/svg">
<g id="quality 1" clip-path="url(#clip0_90_369)">
<g id="XMLID_1364_">
<g id="XMLID_141_">
<path id="XMLID_162_" d="M40.819 40.0436L35.1263 30.1836C36.0705 29.3885 36.723 28.2577 36.8973 26.9763C37.0157 26.105 37.4639 25.3287 38.1592 24.7905C39.9617 23.3953 40.6176 20.9474 39.7543 18.8377C39.4212 18.0239 39.4212 17.1275 39.7543 16.3138C40.6176 14.2041 39.9617 11.7563 38.1592 10.361C37.4639 9.8228 37.0157 9.04652 36.8973 8.17521C36.5901 5.91661 34.7981 4.1246 32.5395 3.81755C31.6683 3.69905 30.892 3.25092 30.3539 2.5556C28.9585 0.753039 26.5109 0.0971872 24.401 0.960493C23.5872 1.29356 22.6908 1.29356 21.8771 0.960493C19.7676 0.0970994 17.3196 0.753039 15.9243 2.5556C15.3861 3.25092 14.6098 3.69905 13.7385 3.81755C11.4798 4.12469 9.68789 5.91661 9.38084 8.1753C9.26234 9.04661 8.81421 9.82289 8.11889 10.3611C6.31633 11.7564 5.66048 14.2043 6.52378 16.3139C6.85685 17.1276 6.85685 18.0241 6.52378 18.8378C5.66039 20.9474 6.31633 23.3953 8.11889 24.7906C8.81421 25.3288 9.26234 26.1051 9.38084 26.9763C9.55735 28.2746 10.2251 29.4179 11.1893 30.2144L5.51438 40.0436C5.33664 40.3515 5.36178 40.7362 5.57829 41.0182C5.79471 41.3002 6.1596 41.4242 6.50321 41.3322L11.4497 40.0068L12.7694 44.9319C12.8614 45.2754 13.1512 45.5295 13.5037 45.5759C13.5422 45.581 13.5806 45.5835 13.6187 45.5835C13.9297 45.5835 14.2214 45.4182 14.3797 45.144L20.5032 34.5377C20.9676 34.4877 21.4299 34.374 21.877 34.191C22.6908 33.858 23.5873 33.858 24.4009 34.191C24.8671 34.3819 25.3498 34.4982 25.8341 34.5446L31.9536 45.144C32.112 45.4183 32.4036 45.5835 32.7146 45.5835C32.7528 45.5835 32.7911 45.581 32.8297 45.5759C33.1822 45.5295 33.472 45.2754 33.564 44.9319L34.8838 40.0068L39.8303 41.3322C40.1734 41.4242 40.5387 41.3003 40.7551 41.0182C40.9715 40.7362 40.9967 40.3515 40.819 40.0436ZM13.9182 42.4271L12.9202 38.7027C12.8598 38.4775 12.7126 38.2855 12.5107 38.1689C12.3087 38.0524 12.0689 38.0208 11.8436 38.0811L8.09797 39.0847L12.7167 31.0848C13.0433 31.2017 13.3851 31.286 13.7384 31.3341C14.6097 31.4526 15.386 31.9007 15.9242 32.596C16.6073 33.4785 17.5429 34.0855 18.5674 34.3745L13.9182 42.4271ZM21.211 32.564C19.8302 33.1292 18.2278 32.6998 17.3144 31.52C16.4922 30.4577 15.3063 29.773 13.9752 29.5921C12.4968 29.391 11.3237 28.218 11.1227 26.7395C10.9417 25.4084 10.2571 24.2226 9.19483 23.4003C8.0149 22.487 7.58557 20.8846 8.15071 19.5037C8.65959 18.2604 8.65959 16.8912 8.15071 15.6479C7.58557 14.2671 8.0149 12.6646 9.19483 11.7513C10.2571 10.9291 10.9417 9.74325 11.1227 8.41212C11.3238 6.93366 12.4968 5.76058 13.9752 5.55954C15.3063 5.37864 16.4922 4.69395 17.3144 3.63172C17.9586 2.79953 18.9451 2.34076 19.9553 2.34076C20.3775 2.34076 20.804 2.42102 21.211 2.5876C22.4543 3.09638 23.8236 3.09638 25.0668 2.5876C26.4476 2.02237 28.0501 2.45178 28.9634 3.63172C29.7856 4.69395 30.9715 5.37864 32.3024 5.55954C33.7809 5.76058 34.954 6.93357 35.155 8.41212C35.336 9.74325 36.0207 10.9291 37.0829 11.7513C38.2628 12.6646 38.6922 14.267 38.127 15.6479C37.6182 16.8912 37.6182 18.2604 38.127 19.5037C38.6922 20.8846 38.2628 22.487 37.0829 23.4003C36.0207 24.2225 35.336 25.4084 35.155 26.7394C34.954 28.2179 33.7809 29.391 32.3025 29.592C30.9714 29.7729 29.7856 30.4576 28.9633 31.5199C28.0499 32.6999 26.4476 33.1291 25.0668 32.5639C23.8236 32.0552 22.4544 32.0552 21.211 32.564ZM34.4896 38.0811C34.0205 37.9553 33.5388 38.2338 33.4131 38.7027L32.415 42.4271L27.7579 34.3606C28.7638 34.0663 29.6811 33.4648 30.3538 32.596C30.8919 31.9006 31.6682 31.4525 32.5394 31.3341C32.9092 31.2838 33.2663 31.193 33.6066 31.0675L38.2352 39.0847L34.4896 38.0811Z" fill="#2C2C2C"/>
<path id="XMLID_1190_" d="M19.1443 14.3242L16.4093 17.0591C16.2445 17.2239 16.1519 17.4475 16.1519 17.6806C16.1519 17.9137 16.2445 18.1374 16.4093 18.3022L21.5388 23.4317C21.7036 23.5966 21.9272 23.6892 22.1604 23.6892C22.3935 23.6892 22.6171 23.5966 22.7819 23.4317L29.9241 16.2895C30.2674 15.9463 30.2674 15.3897 29.9241 15.0464L27.1893 12.3115C27.0243 12.1466 26.8008 12.054 26.5677 12.054C26.3346 12.054 26.1109 12.1466 25.9461 12.3115L22.1604 16.0972L20.3876 14.3243C20.2228 14.1595 19.9991 14.0668 19.766 14.0668C19.5327 14.0667 19.3091 14.1594 19.1443 14.3242ZM21.5387 17.9619C21.7035 18.1267 21.9271 18.2194 22.1603 18.2194C22.3934 18.2194 22.617 18.1267 22.7818 17.9619L26.5675 14.1762L28.0593 15.668L22.1603 21.567L18.274 17.6807L19.7659 16.189L21.5387 17.9619Z" fill="#2C2C2C"/>
<path id="XMLID_1191_" d="M34.5942 17.8715C34.5942 15.5364 33.8944 13.2907 32.5705 11.377C31.2777 9.50843 29.4819 8.07955 27.3773 7.24499C26.9258 7.06611 26.4151 7.28683 26.2362 7.73813C26.0572 8.18943 26.278 8.70033 26.7292 8.8793C30.439 10.3504 32.8362 13.8801 32.8362 17.8715C32.8362 23.2033 28.4985 27.541 23.1667 27.541C17.835 27.541 13.4973 23.2033 13.4973 17.8715C13.4973 13.88 15.8944 10.3503 19.6042 8.87922C20.0555 8.70024 20.2763 8.18934 20.0974 7.73805C19.9184 7.28675 19.4074 7.06593 18.9562 7.2449C16.8515 8.07955 15.0557 9.50834 13.7629 11.3769C12.439 13.2906 11.7392 15.5364 11.7392 17.8714C11.7392 24.1726 16.8656 29.299 23.1667 29.299C29.4679 29.299 34.5942 24.1727 34.5942 17.8715Z" fill="#2C2C2C"/>
<path id="XMLID_1218_" d="M23.1666 8.20191C23.3978 8.20191 23.6246 8.10874 23.788 7.94435C23.9515 7.78085 24.0457 7.55494 24.0457 7.32287C24.0457 7.09169 23.9516 6.86489 23.788 6.70139C23.6246 6.53789 23.3978 6.44383 23.1666 6.44383C22.9355 6.44383 22.7087 6.53789 22.5452 6.70139C22.3817 6.86489 22.2876 7.09169 22.2876 7.32287C22.2876 7.55494 22.3817 7.78085 22.5452 7.94435C22.7087 8.10874 22.9355 8.20191 23.1666 8.20191Z" fill="#2C2C2C"/>
</g>
</g>
</g>
<defs>
<clipPath id="clip0_90_369">
<rect width="45" height="45" fill="white" transform="translate(0.666687 0.583519)"/>
</clipPath>
</defs>
</svg>
